<svg width="122" height="26" viewBox="0 0 122 26" fill="none" xmlns="http://www.w3.org/2000/svg">
<g clip-path="url(#clip0_1_39)">
<mask id="mask0_1_39" style="mask-type:luminance" maskUnits="userSpaceOnUse" x="0" y="0" width="122" height="26">
<path d="M0 0.302325H122V25.9305H0V0.302325Z" fill="white"/>
</mask>
<g mask="url(#mask0_1_39)">
<path d="M34.0325 9.76511C33.2099 11.2417 31.4649 14.4917 31.309 14.7329C30.842 15.4513 29.9208 15.028 30.126 13.9547C30.5265 11.8385 32.7077 7.61195 34.3985 4.54516C31.4865 5.28828 32.5062 3.15265 34.2321 2.64595C37.3443 1.73535 42.2256 0.703209 46.1752 1.10953C47.9515 1.29274 47.7279 2.47121 46.3206 2.52986C42.2249 2.78381 38.3844 3.56805 37.1891 4.02939C36.4416 5.11353 36.0356 5.90986 35.4225 6.8767C36.5322 6.64633 37.7917 6.42321 38.7301 6.40084C39.6691 6.37846 39.9063 6.61246 39.8897 7.00912C39.8694 7.52488 39.3413 7.61981 38.8324 7.75163C37.3856 8.14042 36.8064 8.27405 35.3252 8.72391C34.4995 8.97786 34.4736 8.96879 34.0318 9.76511H34.0325ZM90.2609 11.6631C89.1432 11.3977 86.3779 11.5549 83.814 12.5925C84.445 10.3184 86.7285 6.28837 89.2683 2.84549C90.3872 1.32963 88.5665 1.38465 87.3341 2.89386C86.2404 4.23195 81.35 10.2748 80.9593 12.688C80.7166 14.1845 81.8423 15.0588 83.6285 14.5721C85.4154 14.086 87.2004 13.0568 89.8043 12.8392C90.5992 12.7696 91.1975 11.885 90.2609 11.6631ZM72.964 14.4905C75.2352 15.4289 78.2236 12.4588 80.1552 9.68953C82.931 5.70125 85.1505 1.37558 84.5041 1.03274C84.1449 0.886418 83.7333 1.00191 83.3525 1.62832C77.202 11.7248 74.6695 13.3513 74.1427 12.7956C73.8297 12.4649 74.4299 10.9575 75.7626 8.25832C76.9192 5.91349 78.6037 3.60432 77.751 2.99181C76.9284 2.39865 75.8002 3.76274 74.9462 4.91521C73.2314 7.22679 70.2011 13.3513 72.964 14.4905ZM105.143 11.72C103.647 11.72 103.219 13.2116 104.807 13.494C112.047 14.7837 121.478 6.2007 121.912 2.24749C122.014 1.31512 121.396 0.65665 120.468 0.484325C115.894 -0.366419 97.5242 5.52228 97.5242 15.3636C97.5242 19.3736 100.437 22.6992 105.182 22.6992C110.586 22.6992 116.315 18.8609 118.828 15.655C119.506 14.7892 119.378 13.318 117.793 14.5092C113.185 17.9757 108.923 18.8125 106.419 18.8313C102.405 18.8621 99.2704 15.1036 103.271 10.5227C107.549 5.62325 117.916 2.38474 118.259 2.7947C118.664 3.27358 111.682 11.7127 105.143 11.72ZM97.1724 1.35865C94.4181 2.55949 89.7729 6.64935 88.0735 9.022C87.031 10.478 88.6435 10.5475 89.792 9.44284C92.0903 7.23163 95.6573 4.01549 95.8476 4.15153C95.8815 4.17512 94.4231 7.14032 93.7724 10.319C93.5918 9.75654 93.3078 9.23131 92.9344 8.76925C92.4175 8.10112 91.1932 8.21116 91.7988 9.26507C92.2233 10.0386 92.5161 10.8749 92.6658 11.7411C92.8814 12.9093 92.8814 13.6349 93.0164 14.1785C93.3873 15.6641 94.9 15.476 95.0904 14.0364C95.9549 7.50795 98.4201 3.67749 99.0166 2.39865C99.4836 1.40279 98.2334 0.895488 97.1724 1.35865ZM41.5706 14.3242C39.5194 14.306 38.597 12.8519 38.8305 11.255C39.2895 8.10777 42.1109 4.86019 45.3433 4.58144C45.848 4.53851 46.1135 4.14488 46.6046 4.10135C47.8148 3.9913 48.7144 5.32939 48.4266 7.3453C47.9848 10.4133 44.6187 14.3526 41.5706 14.3242ZM46.2491 5.78228C42.7339 6.29079 39.8361 12.0162 41.008 12.5332C42.2712 13.0967 46.7537 9.724 46.2491 5.7853V5.78228ZM16.5476 20.3689C16.5474 21.3163 16.2974 22.2475 15.8221 23.0721C15.3467 23.8967 14.662 24.5866 13.8346 25.0748C13.0072 25.563 12.0652 25.8329 11.1001 25.8582C10.135 25.8835 9.17962 25.6635 8.32681 25.2194C7.5756 25.6171 6.74177 25.8412 5.8889 25.8747C5.03602 25.9081 4.18662 25.75 3.40548 25.4124C2.62433 25.0747 1.93207 24.5665 1.38147 23.9265C0.830878 23.2864 0.436493 22.5315 0.228394 21.7191C0.0202942 20.9068 0.00397514 20.0585 0.180681 19.2391C0.357387 18.4196 0.722451 17.6506 1.24804 16.9906C1.77362 16.3306 2.44584 15.7971 3.21345 15.4308C3.98105 15.0645 4.82376 14.875 5.67731 14.8768C6.60182 14.8739 7.51246 15.0973 8.32681 15.5268C9.17936 15.08 10.1353 14.8575 11.1015 14.8809C12.0677 14.9043 13.0113 15.1729 13.8404 15.6604C14.6694 16.148 15.3556 16.838 15.8322 17.6631C16.3088 18.4882 16.5595 19.4204 16.56 20.3689H16.5476ZM1.40855 17.3716H2.45848C2.21987 17.2292 1.99211 17.07 1.77701 16.8952C1.64423 17.0469 1.52038 17.206 1.40608 17.3716H1.40731H1.40855ZM0.39804 20.2848H1.39869V17.3753C0.771718 18.2225 0.424229 19.2379 0.40297 20.2848H0.39804ZM1.76962 23.8565C2.01731 23.657 2.2798 23.4756 2.55522 23.3153H1.3993V20.4674H0.403586C0.423858 21.7236 0.911709 22.929 1.77516 23.8565H1.76962ZM5.55038 25.5435C4.76216 24.8272 4.13381 23.9584 3.70498 22.9919C3.63868 23.0149 3.57294 23.0395 3.50781 23.0656V23.3135H2.91506C2.55649 23.5041 2.21836 23.7295 1.90579 23.9865C2.86601 24.9539 4.17457 25.5125 5.55038 25.5435ZM3.63535 22.8201C3.58841 22.7097 3.54627 22.5973 3.50904 22.4833V22.8643L3.63535 22.8201ZM5.58612 22.6593C5.00698 22.6674 4.43216 22.7586 3.87997 22.9302C4.27476 23.8257 4.8559 24.6303 5.58612 25.2926V22.6593ZM5.58612 20.4584H5.17206V21.2257H3.50719V21.8448C3.58483 22.1605 3.68588 22.4706 3.80911 22.7718C4.38364 22.5915 4.98236 22.4963 5.58551 22.4894L5.58674 20.4578L5.58612 20.4584ZM5.58612 18.2593H5.37416V18.9637H3.50719V19.74H5.17206V20.2897H5.58859L5.58612 18.2593ZM5.58612 15.4476C4.9797 15.9979 4.47518 16.6472 4.09501 17.3668H5.37416V18.0742H5.58612V15.4476ZM5.58612 15.1997C4.19513 15.2231 2.87049 15.7875 1.90332 16.7688C2.19039 16.9997 2.49926 17.2032 2.82572 17.3765H3.88552C4.3051 16.5533 4.88202 15.817 5.58489 15.2076L5.58612 15.1997ZM5.77097 15.1997C6.42436 15.7648 6.96906 16.4405 7.37915 17.1945H7.45556C7.59738 17.1951 7.73761 17.2239 7.86776 17.2792C7.99792 17.3345 8.1153 17.4151 8.21282 17.5161C8.64855 17.3131 9.05741 17.0587 9.43035 16.7585C8.46579 15.7892 7.15077 15.2319 5.77035 15.2076L5.77097 15.1997ZM8.89491 23.3081L9.80375 20.4602H8.3989V23.111C8.81481 23.3153 9.20545 23.5645 9.56345 23.8541C9.72057 23.6824 9.86721 23.5016 10.0028 23.3129L8.89491 23.3081ZM9.91589 23.9581C10.268 24.0601 10.6332 24.1118 11.0003 24.1117C11.8531 24.1038 12.6797 23.8213 13.3528 23.3075H12.7921L12.6221 22.5861H11.2277L11.0465 23.3081H10.4156C10.264 23.5379 10.0964 23.758 9.91466 23.9653L9.91589 23.9581ZM12.3128 21.2765L11.948 19.74L11.5697 21.2789L12.3128 21.2765ZM14.5168 21.8164C14.7602 21.2475 14.8564 20.6284 14.7969 20.0142C14.7373 19.3999 14.5239 18.8097 14.1757 18.296C13.8274 17.7823 13.355 17.3611 12.8007 17.07C12.2463 16.7788 11.6272 16.6268 10.9985 16.6273C10.6313 16.6273 10.2653 16.6781 9.91343 16.7797C10.1938 17.0965 10.4353 17.4448 10.6337 17.816L10.76 17.4188H13.2592L14.5168 21.8164ZM9.56283 16.8921C9.18635 17.1963 8.77414 17.4545 8.33667 17.6637C8.48324 17.8853 8.53748 18.1536 8.48817 18.4134C8.43887 18.6731 8.28978 18.9043 8.07172 19.0592C8.10253 19.1989 8.12717 19.3373 8.14689 19.4788H8.39952V20.2812H9.8592L10.4902 18.2828C10.2586 17.7737 9.94557 17.3042 9.56283 16.8921ZM5.77035 18.0821C5.98909 18.0791 6.20783 18.0633 6.42472 18.0349C6.46082 17.8445 6.55108 17.6679 6.68507 17.5256C6.81906 17.3833 6.99132 17.2811 7.18198 17.2307C6.8106 16.566 6.33249 15.9643 5.76604 15.4488L5.77035 18.0821ZM5.77035 20.2812H6.48695V19.4788H7.96142C7.94356 19.37 7.92445 19.263 7.90351 19.1566C7.74356 19.2302 7.56726 19.2631 7.39094 19.2521C7.21461 19.2411 7.04395 19.1867 6.89478 19.0938C6.74561 19.0009 6.62274 18.8725 6.53755 18.7206C6.45237 18.5687 6.40763 18.3982 6.40746 18.2248C6.19674 18.2441 5.98355 18.258 5.77652 18.2605L5.77035 20.2812ZM5.77035 22.4809C6.01004 22.484 6.24911 22.5015 6.48695 22.5341V20.4632H5.77097V22.4809H5.77035ZM5.77035 25.2938C6.39268 24.7254 6.91025 24.0554 7.29843 23.3129H6.48695V22.7173C6.24948 22.6847 6.01013 22.667 5.77035 22.6641V25.2938ZM9.43775 23.9853C9.11687 23.7254 8.76885 23.4997 8.39952 23.3117H7.50238C7.07621 24.1569 6.48816 24.9136 5.77035 25.5405C7.15366 25.5189 8.47209 24.9611 9.43775 23.9889V23.9853ZM14.9401 17.0161L14.6227 17.264L14.1748 16.828L14.4373 16.5076C14.2744 16.3668 14.1037 16.2349 13.9259 16.1127L13.6843 16.4393L13.1366 16.1345L13.3072 15.7536C13.1133 15.6591 12.9137 15.5763 12.7096 15.5057L12.5617 15.8896L11.948 15.73L12.0164 15.3164C11.803 15.2715 11.5869 15.2404 11.3694 15.2233L11.3287 15.6333H10.6978L10.6528 15.2112C10.4347 15.2227 10.2178 15.2475 10.0028 15.2856L10.0736 15.7004L9.46178 15.8636L9.30651 15.4609C9.08346 15.5336 8.86531 15.62 8.65337 15.7197C9.07136 15.9761 9.45298 16.2855 9.78834 16.64C10.5334 16.4091 11.3311 16.3973 12.083 16.6061C12.8348 16.8148 13.5079 17.235 14.0193 17.8147C14.5307 18.3945 14.8579 19.1084 14.9607 19.8685C15.0634 20.6286 14.9372 21.4016 14.5975 22.0921L14.9536 23.3117H13.6578C13.136 23.761 12.505 24.0707 11.8257 24.2108C11.1464 24.3509 10.4417 24.3168 9.77972 24.1117C9.44319 24.465 9.06149 24.7741 8.64413 25.0313C8.85671 25.1323 9.07668 25.2188 9.30158 25.2889L9.44329 24.8929L10.0595 25.0362L10.0003 25.4637C10.2147 25.5 10.4316 25.5235 10.6485 25.535L10.6818 25.1208L11.3127 25.1057L11.3682 25.5229C11.5849 25.507 11.8002 25.4765 12.0127 25.4316L11.9369 25.0289L12.5451 24.8536L12.7077 25.2393C12.9117 25.1698 13.1113 25.087 13.3048 24.9914L13.1267 24.6202L13.6677 24.2997L13.9203 24.6305C14.0984 24.5078 14.2692 24.3752 14.4317 24.2332L14.1668 23.9273L14.6055 23.4798L14.9321 23.7338C15.0738 23.5711 15.205 23.4006 15.3258 23.2228L14.9912 22.9949L15.2968 22.4513L15.6752 22.6109C15.7707 22.4187 15.8551 22.2209 15.9278 22.019L15.5488 21.886L15.7016 21.2801L16.1102 21.3406C16.1496 21.1422 16.1761 20.9415 16.1903 20.7401L15.7885 20.7008V20.0817L16.1964 20.0369C16.1829 19.8253 16.1558 19.6143 16.1157 19.4057L15.7171 19.471L15.5464 18.8736L15.9327 18.7273C15.862 18.5255 15.7797 18.3279 15.6862 18.1353L15.3159 18.3004L14.9968 17.7653L15.3307 17.5264C15.2108 17.3488 15.0808 17.1784 14.9401 17.0161ZM48.3009 11.9902C49.381 9.14232 51.1537 5.84456 51.5924 5.0573C51.2492 5.1613 51.0816 5.26409 50.7249 5.36809C49.5702 5.70065 49.54 4.70419 50.8635 3.83409C52.8106 2.55344 54.7946 2.01893 57.1718 2.01288C59.682 2.00502 60.236 3.2766 60.1263 4.10256C59.8798 5.95944 56.0072 8.22809 53.4761 9.40535C54.3405 10.1974 57.2396 12.2109 59.4879 13.2159C60.5453 13.6887 59.6759 14.609 58.1355 14.1712C56.1533 13.6107 52.8149 11.6286 50.9942 10.2567C50.4784 11.3777 49.8955 12.5471 49.4414 13.5629C48.8006 14.9826 47.6484 13.702 48.3015 11.9866L48.3009 11.9902ZM51.8235 8.45302C54.5469 6.88577 57.5877 5.23386 57.7066 4.24344C57.8101 3.37698 55.8871 3.72344 53.948 4.38977C53.3171 5.47088 52.7003 6.74065 51.8235 8.44939V8.45302ZM73.7262 2.96279C74.68 1.404 72.9893 0.797534 71.0767 1.93791C69.1641 3.07828 67.0181 4.81484 64.4277 8.34479C65.4462 3.718 65.9416 3.43986 66.0125 2.52563C66.0778 1.73595 65.4647 1.16395 64.0592 2.23237C62.8824 3.12363 60.6593 5.71274 58.9408 9.28926C58.1644 10.9061 59.1263 12.2744 59.7763 10.9641C60.3758 9.75725 62.4572 6.36516 63.7555 4.80637C62.8885 7.38521 62.3931 9.67986 62.2551 11.368C62.1504 12.6517 63.3353 13.2588 64.0938 11.8784C65.6354 9.07279 70.3928 4.17874 70.553 4.32628C70.601 4.37042 67.4432 9.56074 66.8942 13.2612C66.6132 15.1405 67.9238 16.0063 68.3366 14.6156C69.8314 9.57888 71.219 7.05326 73.7262 2.95916V2.96279ZM86.9731 20.2129H85.4216V18.7877H84.4474V22.4253H85.4216V21.034H86.9731V22.4253H87.9472V18.7877H86.9731V20.2129ZM82.4252 20.3489C82.1268 20.3294 81.8296 20.2967 81.5342 20.251C81.4007 20.2361 81.2719 20.1941 81.1559 20.1276C81.1256 20.1055 81.1013 20.0764 81.0851 20.0428C81.069 20.0093 81.0616 19.9724 81.0635 19.9353C81.0608 19.8786 81.0742 19.8223 81.1023 19.7726C81.1304 19.723 81.172 19.682 81.2224 19.6542C81.3798 19.5809 81.5539 19.549 81.7277 19.5617C81.8712 19.5593 82.0148 19.5707 82.1565 19.5949C82.2563 19.6119 82.3506 19.6493 82.4338 19.7068C82.5077 19.7612 82.5644 19.8362 82.5977 19.9208L83.419 19.4825C83.3759 19.3582 83.306 19.2445 83.2141 19.1491C83.1223 19.0536 83.0106 18.9786 82.8867 18.9292C82.5333 18.7979 82.1564 18.7385 81.7788 18.7545C81.487 18.7482 81.1966 18.7953 80.9224 18.8935C80.7036 18.9703 80.5138 19.1106 80.3777 19.2956C80.2483 19.4819 80.1824 19.7032 80.1897 19.9281C80.181 20.1114 80.2178 20.294 80.297 20.4602C80.3801 20.6017 80.5114 20.7099 80.6679 20.7661C80.9088 20.852 81.1608 20.9034 81.4171 20.9173C81.6818 20.9382 81.9454 20.9709 82.2071 21.0153C82.3272 21.0286 82.4418 21.0715 82.541 21.1392C82.5706 21.1674 82.5936 21.2016 82.6084 21.2394C82.6232 21.2772 82.6294 21.3177 82.6267 21.3581C82.6314 21.4377 82.604 21.5159 82.5503 21.5758C82.4833 21.6373 82.3992 21.6779 82.3087 21.6925C82.1662 21.7194 82.0213 21.7315 81.8762 21.7287C81.7138 21.7325 81.5516 21.7169 81.3931 21.6822C81.2914 21.6617 81.1964 21.6171 81.1164 21.5522C81.0523 21.4934 81.005 21.4192 80.9791 21.3369L80.1614 21.7644C80.1916 21.9144 80.2754 22.0492 80.3974 22.1441C80.5607 22.2699 80.7498 22.3594 80.9513 22.4066C81.2265 22.474 81.5094 22.5057 81.793 22.5009C82.3821 22.5009 82.8238 22.4053 83.119 22.2137C83.2618 22.1202 83.3773 21.9918 83.4541 21.8411C83.5308 21.6904 83.5661 21.5227 83.5565 21.3545C83.5503 20.7426 83.1726 20.4064 82.424 20.3453L82.4252 20.3489ZM73.8457 19.5568C73.993 19.9015 74.0626 20.274 74.0491 20.6476C74.0606 21.0028 73.9789 21.3549 73.8119 21.6701C73.6632 21.9388 73.4347 22.1569 73.1569 22.2953C72.8597 22.4374 72.5324 22.5083 72.2018 22.5021C71.5659 22.5021 71.094 22.3467 70.7853 22.0353C70.4766 21.7239 70.3219 21.239 70.3219 20.5793C70.3113 20.2213 70.3986 19.867 70.5745 19.5532C70.7306 19.2846 70.9634 19.0668 71.2443 18.9268C71.5308 18.7865 71.8475 18.7152 72.1679 18.7188C72.5336 18.7053 72.8973 18.776 73.2302 18.925C73.5032 19.0586 73.7213 19.2805 73.847 19.5532L73.8457 19.5568ZM73.0484 20.644C73.0484 20.26 72.9665 19.9849 72.7964 19.8168C72.7126 19.7331 72.6116 19.6678 72.5003 19.6251C72.3889 19.5823 72.2695 19.5632 72.1501 19.5689C72.0011 19.5653 71.8533 19.5947 71.7175 19.6548C71.5883 19.7204 71.4872 19.8291 71.4322 19.9613C71.3533 20.1582 71.3176 20.3692 71.3275 20.5805C71.3275 20.9669 71.407 21.2444 71.5684 21.4125C71.6514 21.4959 71.7515 21.5612 71.862 21.6039C71.9726 21.6466 72.0911 21.6659 72.2098 21.6604C72.3608 21.6647 72.5105 21.6362 72.6485 21.5758C72.7792 21.5093 72.8808 21.4004 72.9363 21.2668C73.0182 21.0691 73.0564 20.8568 73.0484 20.644ZM78.162 21.7324H77.9814L76.8193 18.7877H75.067V22.4253H75.8963V19.4788H76.0763L77.2346 22.4253H78.987V18.7877H78.157L78.162 21.7324ZM89.1296 22.4253H90.1032V18.7877H89.1296V22.4253ZM35.3258 18.7877H34.3522V22.4253H37.0178V21.5969H35.3258V18.7877ZM94.4699 19.3906C94.6147 19.6227 94.6862 19.8918 94.6757 20.1633C94.6868 20.4354 94.6172 20.7045 94.4748 20.9385C94.327 21.1495 94.1119 21.3067 93.863 21.3859C93.5261 21.4919 93.1734 21.5409 92.8198 21.531H92.2573V22.4253H91.2831V18.7877H93.0078C93.3091 18.7811 93.6091 18.8313 93.8907 18.9365C94.1286 19.0241 94.3325 19.1832 94.4736 19.3906H94.4699ZM93.68 20.1633C93.6869 20.0372 93.6608 19.9115 93.6042 19.7981C93.5543 19.7105 93.4737 19.6437 93.3775 19.61C93.2472 19.5686 93.1107 19.5498 92.9739 19.5544H92.2573V20.7649H92.8599C93.0139 20.7692 93.1673 20.7504 93.3152 20.7093C93.4248 20.6784 93.5205 20.6122 93.5869 20.5213C93.6554 20.4143 93.6892 20.2895 93.6837 20.1633H93.68ZM47.0248 21.4966C46.864 21.6054 46.6712 21.6586 46.4765 21.6477C46.3095 21.6526 46.1437 21.6187 45.9928 21.5486C45.8541 21.4764 45.7452 21.3593 45.6847 21.2172C45.6032 21.0178 45.5658 20.8036 45.575 20.589C45.575 20.2322 45.6594 19.9825 45.8276 19.8392C46.0063 19.6911 46.2355 19.6143 46.4697 19.6233C46.6453 19.6149 46.8203 19.6542 46.9749 19.7376C47.0382 19.7808 47.089 19.8393 47.1225 19.9074C47.156 19.9755 47.1709 20.051 47.1659 20.1264L48.1752 19.818C48.1723 19.6509 48.1239 19.4875 48.0352 19.3448C47.9465 19.202 47.8207 19.0851 47.6706 19.006C47.2982 18.8246 46.8849 18.7393 46.4697 18.7581C46.1353 18.753 45.8041 18.8225 45.5011 18.9613C45.2158 19.0961 44.9792 19.312 44.8208 19.5804C44.6444 19.891 44.5571 20.2427 44.5682 20.598C44.5682 21.245 44.7296 21.7239 45.0519 22.0341C45.3735 22.3443 45.8535 22.4997 46.4912 22.4997C47.1019 22.4997 47.5455 22.3884 47.8222 22.1671C47.9572 22.0602 48.0658 21.9246 48.1397 21.7706C48.2135 21.6165 48.2508 21.4479 48.2485 21.2777L47.2319 21.0648C47.2333 21.1475 47.2154 21.2295 47.1795 21.3043C47.1436 21.3792 47.0907 21.4449 47.0248 21.4966ZM28.8715 19.5532C29.0187 19.8979 29.0878 20.2697 29.0748 20.644C29.086 20.999 29.0041 21.3508 28.837 21.6659C28.6891 21.9349 28.4611 22.1532 28.1839 22.2917C27.8862 22.4336 27.5585 22.5045 27.2276 22.4985C26.5917 22.4985 26.1191 22.3425 25.8104 22.0317C25.5023 21.7203 25.3477 21.2353 25.3477 20.5757C25.3362 20.2174 25.4235 19.8627 25.6003 19.549C25.7554 19.2803 25.9877 19.0625 26.2682 18.9226C26.5553 18.7823 26.872 18.7109 27.1924 18.7146C27.5579 18.7014 27.9215 18.7722 28.2541 18.9213C28.5283 19.0562 28.7458 19.2793 28.8715 19.5532ZM28.0723 20.644C28.0723 20.26 27.9904 19.9849 27.8265 19.8168C27.7427 19.7333 27.6418 19.668 27.5306 19.6252C27.4193 19.5825 27.3001 19.5633 27.1807 19.5689C27.0316 19.5652 26.8835 19.5945 26.7476 19.6548C26.6187 19.7206 26.5178 19.8293 26.4629 19.9613C26.3844 20.1583 26.3488 20.3692 26.3582 20.5805C26.3582 20.9669 26.4383 21.2444 26.5985 21.4125C26.6813 21.4962 26.7813 21.5617 26.8919 21.6044C27.0025 21.6472 27.1212 21.6663 27.2399 21.6604C27.3909 21.6647 27.5406 21.6362 27.6792 21.5758C27.8092 21.5093 27.9115 21.4004 27.967 21.2668C28.0464 21.0685 28.0822 20.8562 28.0723 20.644ZM51.2425 20.2086H49.6897V18.7877H48.7162V22.4253H49.6897V21.034H51.2425V22.4253H52.2154V18.7877H51.2425V20.2086ZM23.2761 21.6253H23.0666L22.4566 18.7877H21.1208L20.5151 21.6253H20.3038L19.626 18.7877H18.6167L19.5884 22.4253H21.1023L21.6753 19.74H21.8996L22.4535 22.4265H23.9952L24.9379 18.7889H23.928L23.2761 21.6253ZM67.1986 19.3906C67.344 19.6227 67.4161 19.8912 67.4056 20.1633C67.4167 20.4355 67.3465 20.7049 67.2035 20.9385C67.0556 21.1501 66.8406 21.3073 66.5917 21.3859C66.2552 21.4919 65.9029 21.5409 65.5497 21.531H64.9853V22.4253H64.0118V18.7877H65.7309C66.0328 18.7817 66.3323 18.8319 66.6145 18.9365C66.8523 19.0241 67.0569 19.1832 67.1986 19.3906ZM66.4087 20.1633C66.4155 20.0372 66.3895 19.9115 66.3329 19.7981C66.2833 19.7132 66.2041 19.6487 66.1098 19.6167C65.9795 19.575 65.8427 19.556 65.7056 19.5605H64.989V20.771H65.5923C65.7463 20.7752 65.8997 20.7565 66.0476 20.7153C66.1576 20.685 66.2538 20.6189 66.3206 20.5279C66.3871 20.4179 66.4179 20.2909 66.4087 20.1633ZM68.3212 22.4253H69.2942V18.7877H68.3212V22.4253ZM41.2249 19.5774C41.3913 19.9045 41.4695 20.2679 41.4535 20.6325C41.4667 20.9858 41.3705 21.3347 41.1775 21.6332C40.9936 21.9006 40.7325 22.108 40.4276 22.2288C40.085 22.3618 39.719 22.4277 39.3505 22.4217H37.8126V18.7877H39.1324C39.5936 18.7719 40.054 18.8383 40.4911 18.9836C40.8004 19.09 41.061 19.3023 41.2249 19.5816V19.578V19.5774ZM40.4103 20.6325C40.4222 20.4166 40.3788 20.2013 40.284 20.0061C40.1999 19.8545 40.0626 19.7379 39.8977 19.6778C39.6858 19.6063 39.4624 19.5733 39.2384 19.5804H38.7905V21.6241H39.3512C39.5409 21.6284 39.7301 21.6 39.9094 21.5401C40.0634 21.4845 40.1941 21.3786 40.2779 21.239C40.3765 21.054 40.4221 20.8453 40.4103 20.6361V20.6325ZM32.55 20.9681L33.5328 22.3461V22.4253H32.4631L31.6454 21.1979H30.8697V22.4253H29.9011V18.7877H31.7255C32.2456 18.7877 32.651 18.879 32.9431 19.0616C33.0843 19.1462 33.1996 19.2668 33.2766 19.4105C33.3536 19.5542 33.3895 19.7158 33.3806 19.8779C33.3923 20.1198 33.3251 20.3586 33.1895 20.5612C33.026 20.76 32.8016 20.9025 32.55 20.9681ZM32.362 20.0393C32.3697 19.9321 32.3416 19.8254 32.2819 19.7352C32.226 19.6633 32.1466 19.6125 32.057 19.5913C31.9328 19.5634 31.8055 19.551 31.6781 19.5544H30.8635V20.5152H31.5056C31.7212 20.5255 31.9369 20.488 32.1365 20.4046C32.2072 20.3729 32.2666 20.3212 32.3071 20.2561C32.3475 20.191 32.3671 20.1155 32.3633 20.0393H32.362ZM55.8649 18.7877L57.0171 22.4253H55.9389L55.7645 21.8225H54.2148L54.0398 22.4253H52.9887L54.139 18.7877H55.8649ZM55.5433 21.0636L55.0553 19.3688H54.929L54.4397 21.06L55.5433 21.0636ZM60.422 21.5044H60.252L59.4787 18.7877H57.7916V22.4253H58.6044V19.5665H58.7794L59.6629 22.4253H61.0431L61.9347 19.5665H62.1128V22.4253H62.9224V18.7877H61.236L60.4227 21.5044H60.422Z" fill="url(#paint0_linear_1_39)"/>
<path d="M27.5301 7.71958C27.1979 7.2782 26.7626 6.92154 26.2608 6.67958C26.5649 6.47427 26.8135 6.19931 26.985 5.87849C27.1564 5.55767 27.2456 5.20068 27.2448 4.83842C27.2448 3.5626 26.3618 2.59879 24.7333 2.59879H24.0974V7.71958H27.5301ZM23.7653 2.59758H20.6124V7.71837H23.7653V2.59758ZM23.7653 8.04005H20.6124V13.1614H23.7653V8.04005ZM24.0974 8.03884V13.1608H24.7395C26.8751 13.1608 28.2276 11.6752 28.2276 9.74637C28.2268 9.14578 28.0626 8.55629 27.7519 8.03884H24.0974ZM8.86777 7.71958L7.02236 2.59879H5.6095V7.71958H8.86777ZM5.28232 7.71958V2.59879H3.86946L2.02468 7.71958H5.28232ZM5.28232 8.03884H1.90884L0.0640507 13.1608H2.78132L3.54413 11.0264H5.28232V8.03884ZM5.6095 8.03884V11.0264H7.34893L8.10989 13.1608H10.8272L8.98299 8.03944H5.60889L5.6095 8.03884ZM18.6154 7.71958C18.283 7.27846 17.8478 6.92186 17.3462 6.67958C17.6495 6.47362 17.8975 6.19848 18.0686 5.87779C18.2398 5.5571 18.3291 5.20044 18.3289 4.83842C18.3289 3.5626 17.446 2.59879 15.8181 2.59879H15.176V7.71958H18.6154ZM14.8507 2.59758H11.6978V7.71837H14.8507V2.59758ZM14.8507 8.04005H11.6978V13.1614H14.8507V8.04005ZM15.176 8.03884V13.1608H15.8181C17.9555 13.1608 19.308 11.6752 19.308 9.74637C19.3072 9.14578 19.143 8.55629 18.8323 8.03884H15.176Z" fill="#FF0000"/>
</g>
</g>
<defs>
<linearGradient id="paint0_linear_1_39" x1="1.82938" y1="23.4193" x2="120.651" y2="3.69804" gradientUnits="userSpaceOnUse">
<stop stop-color="#002E63"/>
<stop offset="1" stop-color="#0000FF"/>
</linearGradient>
<clipPath id="clip0_1_39">
<rect width="122" height="26" fill="white"/>
</clipPath>
</defs>
</svg>
