<svg width="130" height="25" viewBox="0 0 130 25" fill="none" xmlns="http://www.w3.org/2000/svg">
<g clip-path="url(#clip0_1_32)">
<path d="M121.458 5.89552H127.278C128.601 5.89552 129.675 6.91542 129.675 8.18408V13.408H120.984C120.184 13.408 119.51 12.7861 119.51 12.0149V10.199C119.51 9.47761 120.11 8.90547 120.859 8.90547H125.679L125.18 9.97512H121.633C121.483 9.97512 121.308 10.0995 121.308 10.2488V11.6915C121.308 11.8657 121.483 11.9652 121.633 11.9652H127.802V8.53234C127.802 7.8607 127.203 7.36318 126.528 7.36318H120.759L121.458 5.89552ZM86.6417 4.25373V3.13433H84.7685V5.29851L86.6417 4.25373ZM84.7435 6.36816L86.6167 5.29851V13.4328H84.7435V6.36816ZM96.1076 5.89552C97.4313 5.89552 98.5053 6.91542 98.5053 8.18408V13.408H96.6321V8.53234C96.6321 7.8607 96.0327 7.36318 95.3583 7.36318H90.8377V13.4328H88.9645V5.89552C91.3372 5.89552 93.7099 5.89552 96.1076 5.89552ZM120.134 5.89552H115.414C114.09 5.89552 113.016 6.91542 113.016 8.18408V13.408H114.89V8.53234C114.89 7.8607 115.489 7.36318 116.163 7.36318H119.41L120.134 5.89552ZM57.0701 13.4328H58.9433V8.20896C58.9433 6.9403 57.8694 5.9204 56.5456 5.9204H44.2325V13.4328H46.1057V7.63682C46.1057 7.46269 46.2805 7.36318 46.4304 7.36318H50.3016C50.4515 7.36318 50.6263 7.48756 50.6263 7.63682V13.4328H52.4995V7.63682C52.4995 7.46269 52.6743 7.36318 52.8242 7.36318H55.7714C56.4457 7.36318 57.0451 7.8607 57.0451 8.53234V13.4328H57.0701ZM72.7301 3.1592V13.4328H74.6033V3.1592H72.7301ZM80.5476 13.4328H82.4207V8.20896C82.4207 6.9403 81.3468 5.9204 80.0231 5.9204H76.0269L75.3276 7.38806H79.2738C79.9481 7.38806 80.5476 7.88557 80.5476 8.55721V13.4328ZM110.344 3.1592V13.4328H101.852C101.053 13.4328 100.378 12.8109 100.378 12.0398V8.18408C100.378 6.91542 101.452 5.89552 102.776 5.89552H107.597L106.872 7.36318H103.5C102.826 7.36318 102.227 7.8607 102.227 8.53234V11.6915C102.227 11.8657 102.402 11.9652 102.551 11.9652H108.421V3.1592H110.344ZM62.5399 5.89552H68.3593C69.683 5.89552 70.757 6.91542 70.757 8.18408V13.408H62.0653C61.2661 13.408 60.6167 12.7861 60.6167 12.0149V10.199C60.6167 9.47761 61.2161 8.90547 61.9654 8.90547H66.7858L66.2863 9.97512H62.7397C62.5898 9.97512 62.415 10.0995 62.415 10.2488V11.6915C62.415 11.8657 62.5898 11.9652 62.7397 11.9652H68.9087V8.53234C68.9087 7.8607 68.3093 7.36318 67.635 7.36318H61.8655L62.5399 5.89552Z" fill="white"/>
<path d="M36.2901 1.0199C36.2152 1.09453 36.1153 1.19403 36.0404 1.26866L35.2911 1.89055L34.5418 2.51244L33.7925 3.13433L33.0432 3.75622L32.294 4.37811L31.5447 5L30.7954 5.62189L30.0461 6.24378L29.2968 6.86567L28.5476 7.48756L27.7983 8.10945L27.049 8.73134L26.2997 9.35323L25.5504 9.97512L24.7262 10.6965L23.9769 11.3184L23.2277 11.9403L22.4784 12.5622L21.7291 13.1841L20.9798 13.806L20.2306 14.4279C20.0058 14.602 19.806 14.7761 19.5812 14.9751C19.5812 16.4179 19.5812 17.8358 19.5812 19.2786C21.5793 21.0448 23.5773 22.8358 25.6004 24.6269C26.6244 24.6269 27.6734 24.6269 28.6974 24.6269C29.3967 22.6368 30.0711 20.7214 30.6705 18.9303L30.7454 18.6816L30.8453 18.4328L30.9203 18.1841L30.9952 17.9353L31.0701 17.6866L31.1451 17.4378L31.22 17.1891L31.2949 16.9403L31.3698 16.6915L31.4448 16.4428L31.5197 16.194L31.5946 15.9453L31.6696 15.6965L31.7445 15.4478L31.8194 15.199L31.8943 14.9502L31.9693 14.7015L32.0442 14.4527L32.1191 14.204L32.194 13.9552L32.269 13.7065L32.3439 13.4577L32.4188 13.209L32.5937 12.6617L32.7685 12.1144L32.9433 11.5672L33.1182 11.0199L33.293 10.4726L33.4678 9.92537L33.6427 9.37811L33.8175 8.83084L33.9923 8.28358L34.1672 7.73632L34.342 7.18905L34.5168 6.64179L34.6916 6.09453L34.8665 5.54726L35.0413 5L35.1912 4.45274L35.341 3.90547L35.4909 3.35821L35.6407 2.81095L35.7906 2.26368L35.9404 1.71642C36.1902 1.36816 36.2402 1.19403 36.2901 1.0199ZM35.6158 2.06468C35.5658 2.21393 35.5408 2.36318 35.4909 2.51244L35.341 3.00995L35.1912 3.50746L35.0413 4.00497L34.8915 4.50249L34.7416 5L34.5917 5.49751L34.4419 5.99502L34.292 6.49254L34.1422 6.99005L33.9923 7.48756L33.8425 7.98507L33.6926 8.48259L33.5428 8.9801L33.3929 9.47761L33.243 9.97512L33.0932 10.4726L32.9433 10.9701L32.7935 11.4677L32.6436 11.9652L32.4938 12.4627L32.3439 12.9602L32.269 13.209L32.194 13.4577L32.1191 13.7065L32.0442 13.9552L31.9693 14.204L31.8943 14.4527L31.8194 14.7015L31.7445 14.9502L31.6696 15.199L31.5946 15.4478L31.5197 15.6965L31.4448 15.9453L31.3698 16.194L31.2949 16.4428L31.22 16.6915L31.1451 16.9403L31.0701 17.1891L30.9952 17.4378L30.9203 17.6866L30.8453 17.9353L30.7704 18.1841L30.6705 18.4328L30.5956 18.6816L30.5207 18.9303L30.4457 19.1791L30.3708 19.4279L30.2959 19.6766L30.2209 19.9254L30.146 20.1741L30.0711 20.4229L29.9962 20.6716L29.9212 20.9204L29.8463 21.1692L29.7714 21.4179L29.6965 21.6667L29.6215 21.9154L29.5466 22.1642L29.4717 22.4129L29.3967 22.6617L29.3218 22.9104L29.2469 23.1592L29.172 23.408L29.097 23.6567L29.0221 23.9055L28.9472 24.1542L28.9222 24.204H26.1998C23.7771 22.5871 21.829 20.8706 19.9059 19.1542V15.1741C20.1057 15 20.3055 14.8507 20.5053 14.6766L21.2046 14.0796L21.9039 13.4826L22.6033 12.8856L23.3026 12.2886L24.0019 11.6915L24.7013 11.0945L25.4006 10.4975L26.0999 9.9005L26.7992 9.30348L27.4986 8.70647L28.1979 8.10945L28.8972 7.51244L29.5965 6.91542L30.2959 6.31841L30.9952 5.72139L31.6945 5.12438L32.3939 4.52736L33.0932 3.93035L33.7925 3.33333L34.4918 2.73632L35.1912 2.1393C35.4659 2.18905 35.5408 2.1393 35.6158 2.06468Z" fill="white"/>
<path d="M0.549479 1.29353L0.699335 1.8408L0.849191 2.38806L0.999046 2.93532L1.1489 3.48259L1.29876 4.02985L1.49857 4.65174L1.6734 5.199L1.84823 5.74627L1.99809 6.31841L2.17292 6.86567L2.34775 7.41293L2.52258 7.9602L2.69741 8.50746L2.87225 9.05473L3.04708 9.60199L3.22191 10.1493L3.39674 10.6965L3.57157 11.2438L3.7464 11.791L3.92124 12.3383L4.09607 12.8856L4.171 13.1592L4.24592 13.4328L4.32085 13.7065L4.39578 13.9801L4.47071 14.2537L4.54564 14.5274L4.62056 14.801L4.69549 15.0498L4.77042 15.3234L4.84535 15.597L4.92028 15.8706L4.9952 16.1443L5.07013 16.393L5.14506 16.6418L5.21999 16.9154L5.29492 17.1642L5.39482 17.4378L5.46975 17.6866L5.56965 17.9602L5.64458 18.209L5.74448 18.4577L5.84439 18.7065L5.94429 18.9552C6.56869 20.7711 7.21807 22.7114 7.94237 24.7264C8.99136 24.7264 10.0404 24.7264 11.0893 24.7264C13.1374 22.9104 15.1604 21.0945 17.1835 19.3035C17.1835 17.8358 17.1835 16.393 17.1835 14.9254C16.9587 14.7512 16.7589 14.5522 16.5341 14.3781L15.7599 13.7313L14.9856 13.0846L14.2113 12.4378L13.4371 11.791L12.6628 11.1443L11.8886 10.4975L11.1143 9.85074L10.3401 9.20398L9.79059 8.70647L9.01634 8.0597L8.26706 7.41293L7.51778 6.76617L6.74352 6.14428L5.99424 5.49751L5.24496 4.85075L4.49568 4.20398L3.7464 3.55721L2.99713 2.91045L2.24785 2.26368L1.49857 1.61691L0.749287 0.970149C0.674359 0.895522 0.574455 0.796019 0.499527 0.721393C0.449575 0.945273 0.499527 1.1194 0.549479 1.29353ZM1.29876 2.0398L2.02306 2.63682L2.74737 3.23383L3.47167 3.83085L4.19597 4.42786L4.92028 5.02488L5.64458 5.62189L6.36888 6.21891L7.09319 6.81592L7.81749 7.41293L8.54179 8.00995L9.2661 8.60696L9.9904 9.20398L10.7147 9.80099L11.439 10.398L12.1633 10.995L12.8876 11.592L13.6119 12.1891L14.3362 12.7861L15.0605 13.3831L15.7848 13.9801L16.5091 14.5771C16.7089 14.7512 16.9087 14.9254 17.1086 15.0995V19.1542C15.1604 20.8955 13.2123 22.6368 11.2392 24.3781H8.49184H8.31701L8.24208 24.1294L8.16715 23.8806L8.09223 23.6318L8.0173 23.3831L7.94237 23.1343L7.86744 22.8856L7.79251 22.6368L7.71759 22.3881L7.64266 22.1393L7.56773 21.8905L7.4928 21.6418L7.41787 21.393L7.34295 21.1443L7.26802 20.8955L7.19309 20.6468L7.11816 20.398L7.04323 20.1493L6.96831 19.9005L6.89338 19.6517L6.81845 19.403L6.49376 19.1542L6.41883 18.9055L6.31893 18.6567L6.21903 18.408L6.11912 18.1592L6.0442 17.9104L5.94429 17.6617L5.86936 17.3881L5.79444 17.1393L5.71951 16.8905L5.64458 16.6169L5.56965 16.3682L5.49472 16.0945L5.4198 15.8458L5.34487 15.5721L5.26994 15.2985L5.19501 15.0249L5.12008 14.7512L5.04516 14.4776L4.97023 14.204L4.8953 13.9552L4.67052 13.6816L4.59559 13.408L4.52066 13.1343L4.44573 12.8607L4.29588 12.3632L4.14602 11.8657L3.99616 11.3682L3.84631 10.8706L3.69645 10.3731L3.5466 9.87562L3.39674 9.37811L3.24689 8.8806L3.09703 8.38308L2.94717 7.88557L2.79732 7.38806L2.64746 6.89055L2.49761 6.39303L2.34775 5.89552L2.19789 5.39801L2.04804 4.9005L1.89818 4.40298L1.74833 3.90547L1.59847 3.40796L1.44861 2.91045L1.29876 2.41293C1.17388 2.16418 1.12393 2.01492 1.07397 1.8408C1.1489 1.91542 1.22383 1.96517 1.29876 2.0398ZM36.4649 0.746268C36.39 0.820895 36.2901 0.920398 36.2152 0.995024L35.4659 1.64179L34.7166 2.28856L33.9673 2.93532L33.2181 3.58209L32.4688 4.22886L31.7195 4.87562L30.9702 5.52239L30.2209 6.16915L29.4717 6.81592L28.7224 7.46269L27.9481 8.10945L27.1989 8.75622L26.4246 9.40298L25.6503 10.0498L24.8761 10.6965L24.1018 11.3433L23.3276 11.99L22.5533 12.6368L21.7291 13.1343L20.9798 13.7562L20.2056 14.403C19.9808 14.5771 19.781 14.7761 19.5562 14.9502C19.5562 16.393 19.5562 17.8607 19.5562 19.3284C21.5793 21.1194 23.6023 22.9353 25.6503 24.7512C26.6993 24.7512 27.7483 24.7512 28.7973 24.7512C29.5216 22.7114 30.171 20.796 30.7954 18.9801L30.8953 18.7313L30.9952 18.4826L31.0951 18.2338L31.17 17.9851L31.22 17.6617L31.2949 17.4129L31.3948 17.1393L31.4697 16.8905L31.5447 16.6418L31.6196 16.3682L31.6945 16.1194L31.7695 15.8458L31.8444 15.597L31.9193 15.3234L31.9942 15.0498L32.0692 14.801L32.1441 14.5274L32.219 14.2537L32.294 13.9801L32.3689 13.7065L32.4438 13.4328L32.5187 13.1592L32.5937 12.8856L32.7685 12.3383L32.9433 11.791L33.1182 11.2438L33.293 10.6965L33.4678 10.1493L33.6427 9.60199L33.8175 9.05473L33.9923 8.50746L34.1672 7.9602L34.342 7.41293L34.5168 6.86567L34.6916 6.31841L34.8665 5.77114L35.0413 5.22388L35.2161 4.67662L35.391 4.12935L35.5658 3.58209L35.7157 3.03483L35.8655 2.48756L36.0154 1.9403L36.1652 1.39303C36.365 1.06965 36.415 0.895522 36.4649 0.746268ZM35.7656 1.81592C35.7157 1.96517 35.6657 2.1393 35.6407 2.28856L35.4909 2.78607L35.341 3.28358L35.1912 3.78109L35.0413 4.27861L34.8915 4.77612L34.7416 5.27363L34.5917 5.77114L34.4419 6.26866L34.292 6.76617L34.1422 7.26368L33.9923 7.76119L33.8425 8.25871L33.6926 8.75622L33.5428 9.25373L33.3929 9.75124L33.243 10.2488L33.0932 10.7463L32.9433 11.2438L32.7935 11.7413L32.6436 12.2388L32.4938 12.7363L32.4188 13.0099L32.3439 13.2836L32.269 13.5572L32.194 13.8308L32.1191 14.1045L32.0442 14.3781L31.9693 14.6517L31.8943 14.9254L31.8194 15.199L31.7445 15.4726L31.6696 15.7463L31.5946 15.995L31.5197 16.2687L31.4448 16.5174L31.3698 16.791L31.2949 17.0398L31.22 17.2886L31.1451 17.5622L31.0452 17.8109L30.9702 18.0597L30.8703 18.3085L30.7704 18.5572L30.6705 18.806L30.5956 19.0547L30.5207 19.3035L30.4457 19.5522L30.3708 19.801L30.2959 20.0497L30.2209 20.2985L30.146 20.5473L30.0711 20.796L29.9962 21.0448L29.9212 21.2935L29.8463 21.5423L29.7714 21.791L29.6965 22.0398L29.6215 22.2886L29.5466 22.5373L29.4717 22.7861L29.3967 23.0348L29.3218 23.2836L29.2469 23.5323L29.172 23.7811L29.097 24.0298L29.0221 24.2786L28.9971 24.3284H26.2498C24.2767 22.5871 22.3285 20.8458 20.3804 19.1045V15.0498C20.5802 14.8756 20.78 14.7015 20.9798 14.5274L21.7041 13.9303L22.4284 13.3333L23.1527 12.7363L23.877 12.1393L24.6014 11.5423L25.3257 10.9453L26.05 10.3483L26.7743 9.75124L26.9741 9.20398L27.6984 8.60696L28.4227 8.00995L29.147 7.41293L29.8713 6.81592L30.5956 6.21891L31.3199 5.62189L32.0442 5.02488L32.7685 4.42786L33.4928 3.83085L34.2171 3.23383L34.9414 2.63682L35.6657 2.0398C35.6158 1.9403 35.6907 1.86567 35.7656 1.81592Z" stroke="white" stroke-width="1.667" stroke-miterlimit="10" stroke-linecap="square"/>
<path d="M129.65 18.2836H128.826L127.727 20.9453C127.602 21.2189 127.502 21.5174 127.378 21.8159C127.328 21.6667 127.278 21.5423 127.203 21.393L127.028 20.9702L125.929 18.3085H125.13V22.4129H125.604V19.1045C125.604 18.9552 125.604 18.806 125.604 18.6567C125.654 18.7811 125.704 18.9055 125.754 19.0299L127.153 22.3881H127.627L129.026 18.9801C129.076 18.8308 129.101 18.806 129.126 18.7562C129.151 18.7065 129.151 18.6567 129.176 18.607C129.176 18.7811 129.176 18.9304 129.176 19.1045V22.4129H129.65V18.2836ZM120.634 21.1692H118.811L119.71 18.6567L120.634 21.1692ZM120.784 21.5423L121.109 22.4129H121.608L120.06 18.3085H119.385L117.887 22.4129H118.386L118.711 21.5423H120.784ZM112.342 18.6816H114.54V18.2836H111.892V22.3881H114.54V21.9901H112.342V20.4478H114.44V20.0498H112.342V18.6816ZM107.022 18.7065H108.371V18.2836H105.224V18.7065H106.573V22.3881H107.047V18.7065H107.022ZM96.6071 18.6816H98.805V18.2836H96.1575V22.3881H98.805V21.9901H96.6071V20.4478H98.7051V20.0498H96.6071V18.6816ZM88.5648 21.1692H86.7416L87.6657 18.6567L88.5648 21.1692ZM88.7147 21.5423L89.0394 22.4129H89.5389L87.9904 18.3085H87.341L85.8175 22.4129H86.317L86.6417 21.5423H88.7147ZM80.5226 18.2836H80.048V22.3881H82.6455V21.9652H80.5226V18.2836ZM75.7272 18.2836V21.1692C75.7272 21.9652 75.6023 22.0398 74.5034 22.0398C73.829 22.0398 73.6042 21.9901 73.4794 21.7662C73.4294 21.6667 73.4044 21.4925 73.4044 21.1692V18.2836H72.9299V21.1692C72.9299 21.8905 73.0797 22.1642 73.5543 22.3383C73.7541 22.4129 74.0038 22.4378 74.5533 22.4378C75.4525 22.4378 75.7771 22.3632 76.0019 22.0647C76.1518 21.8657 76.2017 21.6418 76.2017 21.1692V18.2836H75.7272ZM69.0586 18.2836H68.2344L67.1354 20.9453C67.0106 21.2189 66.9107 21.5174 66.7858 21.8159C66.7358 21.6667 66.6859 21.5423 66.611 21.393L66.4361 20.9702L65.3372 18.3085H64.5379V22.4129H65.0125V19.1045C65.0125 18.9552 65.0125 18.806 65.0125 18.6567C65.0624 18.7811 65.1124 18.9055 65.1623 19.0299L66.561 22.3881H67.0355L68.4342 18.9801C68.4842 18.8308 68.5091 18.806 68.5341 18.7562C68.5591 18.7065 68.5591 18.6567 68.5841 18.607C68.5841 18.7811 68.5841 18.9304 68.5841 19.1045V22.4129H69.0586V18.2836ZM58.0442 20.3483V18.6816H59.5427C59.8674 18.6816 60.0672 18.7562 60.1671 18.8806C60.2421 19.005 60.2671 19.1791 60.2671 19.602C60.2671 20.1493 60.0423 20.3483 59.3679 20.3483H58.0442ZM57.5696 22.4129H58.0442V20.7463H59.4428C59.7675 20.7463 59.8924 20.7711 60.0173 20.8706C60.1672 20.995 60.2171 21.1443 60.2171 21.4428V22.3881H60.6916V21.3433C60.6916 20.8458 60.4669 20.5721 60.0423 20.5473C60.5917 20.4478 60.7666 20.199 60.7666 19.4527C60.7666 18.5821 60.4419 18.2587 59.5677 18.2587H57.5946V22.4129H57.5696ZM52.05 18.6318C52.8991 18.6318 53.074 18.6816 53.2238 18.9801C53.3237 19.2289 53.3237 19.2289 53.3237 20.8458C53.3237 21.393 53.2738 21.6418 53.1239 21.8159C52.9741 21.9652 52.7743 22.0149 52.025 22.0149C51.1758 22.0149 51.001 21.9652 50.8511 21.6667C50.7512 21.4179 50.7512 21.4179 50.7512 19.801C50.7512 19.2537 50.8012 19.005 50.951 18.8308C51.1009 18.6816 51.3007 18.6318 52.05 18.6318ZM52.025 18.2338C51.6753 18.2338 51.3506 18.2587 51.2008 18.2836C50.8511 18.3582 50.6013 18.5075 50.4765 18.7562C50.3016 19.0796 50.2767 19.3035 50.2767 20.1741C50.2767 21.1194 50.2767 21.2687 50.3516 21.592C50.4265 21.9652 50.6013 22.1891 50.9011 22.3134C51.1758 22.4129 51.3756 22.4378 52.0999 22.4378C52.6993 22.4378 52.9241 22.4129 53.1739 22.3134C53.4736 22.1891 53.6484 21.9652 53.7233 21.592C53.7983 21.2687 53.7983 21.1443 53.7983 20.1741C53.7983 19.6517 53.7983 19.5522 53.7733 19.3532C53.6984 18.8308 53.5235 18.5075 53.1489 18.3831C52.9241 18.2836 52.6744 18.2338 52.025 18.2338ZM44.707 18.6816H46.78V18.2836H44.2574V22.3881H44.732V20.4975H46.755V20.0995H44.707V18.6816Z" fill="white"/>
</g>
<defs>
<clipPath id="clip0_1_32">
<rect width="130" height="25" fill="white"/>
</clipPath>
</defs>
</svg>
